<?xml version="1.0" encoding="UTF-8" standalone="no"?> <svg width="52" height="53" viewBox="0 0 52 53" fill="none" xmlns="http://www.w3.org/2000/svg">
<path d="M52.0001 27.158C52.0001 12.7102 40.5827 0.998047 26.4986 0.998047C12.4145 0.998047 0.99707 12.7102 0.99707 27.158C0.99707 40.2151 10.3226 51.0376 22.514 53.0001V34.7198H16.039V27.158H22.514V21.3946C22.514 14.8383 26.3212 11.2168 32.1463 11.2168C34.9363 11.2168 37.8547 11.7277 37.8547 11.7277V18.1655H34.639C31.4711 18.1655 30.4832 20.182 30.4832 22.2508V27.158H37.5559L36.4252 34.7198H30.4832V53.0001C42.6745 51.0376 52.0001 40.2151 52.0001 27.158Z" fill="url(#paint0_linear_801_1264)"/>
<defs>
<linearGradient id="paint0_linear_801_1264" x1="26.4986" y1="0.998047" x2="26.4986" y2="53.0001" gradientUnits="userSpaceOnUse">
<stop stop-color="#88C6FF"/>
<stop offset="1" stop-color="#0085FF"/>
</linearGradient>
</defs>
</svg>
